<?xml version="1.0" encoding="iso-8859-1"?>
<!-- Generator: Adobe Illustrator 19.0.0, SVG Export Plug-In . SVG Version: 6.00 Build 0)  -->
<svg version="1.1" id="Layer_1" xmlns="http://www.w3.org/2000/svg" xmlns:xlink="http://www.w3.org/1999/xlink" x="0px" y="0px"
	 viewBox="0 0 512 512" style="enable-background:new 0 0 512 512;" xml:space="preserve">
<polygon style="fill:#F8F8F9;" points="345.6,0 51.2,0 51.2,512 460.8,512 460.8,115.2 "/>
<polygon style="fill:#EDEDED;" points="345.6,115.2 345.6,0 256,0 256,512 460.8,512 460.8,115.2 "/>
<rect x="25.6" y="230.4" style="fill:#EFC27B;" width="460.8" height="204.8"/>
<rect x="256" y="230.4" style="fill:#ECB45C;" width="230.4" height="204.8"/>
<g>
	<path style="fill:#F8F8F9;" d="M165.11,289.408V371.2h-18.895v-33.523h-32.599V371.2H94.723v-81.792h18.893v31.68h32.6v-31.68
		H165.11z"/>
	<path style="fill:#F8F8F9;" d="M248.859,305.997h-24.882V371.2h-18.893v-65.203h-24.998v-16.589h68.773L248.859,305.997
		L248.859,305.997z"/>
	<path style="fill:#F8F8F9;" d="M328.346,371.2v-48.96l-17.74,35.597h-10.138l-17.741-35.597v48.96h-18.893v-81.792h20.506
		l21.197,42.739l21.312-42.739h20.392V371.2H328.346z"/>
	<path style="fill:#F8F8F9;" d="M368.663,371.2v-81.792h18.894v65.203h39.629V371.2H368.663z"/>
</g>
<g>
</g>
<g>
</g>
<g>
</g>
<g>
</g>
<g>
</g>
<g>
</g>
<g>
</g>
<g>
</g>
<g>
</g>
<g>
</g>
<g>
</g>
<g>
</g>
<g>
</g>
<g>
</g>
<g>
</g>
</svg>
